<?xml version="1.0" encoding="UTF-8"?>
<!DOCTYPE svg PUBLIC "-//W3C//DTD SVG 1.1//EN" "http://www.w3.org/Graphics/SVG/1.1/DTD/svg11.dtd">
<!-- Creator: Corel DESIGNER -->
<svg xmlns="http://www.w3.org/2000/svg" xml:space="preserve" width="210mm" height="150mm" style="shape-rendering:geometricPrecision; text-rendering:geometricPrecision; image-rendering:optimizeQuality; fill-rule:evenodd; clip-rule:evenodd"
viewBox="0 0 210 150"
 xmlns:xlink="http://www.w3.org/1999/xlink">
 <defs>
  <style type="text/css">
   <![CDATA[
    .str0 {stroke:#07ACD3;stroke-width:0.7055}
    .str1 {stroke:#07ACD3;stroke-width:0.7055;stroke-linejoin:bevel}
    .fil0 {fill:none}
   ]]>
  </style>
 </defs>
 <g id="Layer_x0020_1">
  <metadata id="CorelCorpID_0Corel-Layer"/>
  <path class="fil0 str0" d="M143.989 50.489c0,13.2842 -9.8298,24.1554 -23.0378,24.1554m25.8572 -24.1554c0,14.859 -11.811,26.9748 -26.5684,26.9748m29.3624 -26.9748c0,16.4084 -13.081,29.8196 -29.4132,29.8196m32.2326 -29.8196c0,17.9832 -14.351,32.639 -32.2326,32.639m35.052 -32.639c0,19.5326 -15.5448,35.4584 -34.9758,35.4584m-12.2428 -34.8234c0,-7.0358 5.2832,-12.7508 12.2936,-12.7508m-37.6174 12.7508c0,-21.1074 16.9926,-38.227 37.9984,-38.227m-15.494 38.227c0,-8.5852 6.5532,-15.5702 15.113,-15.5702m-17.9324 15.5702c0,-10.16 7.8232,-18.415 17.9324,-18.415m-20.7264 18.415c0,-11.7348 9.0678,-21.2344 20.7264,-21.2344m-23.5458 21.2344c0,-13.2842 10.3124,-24.0538 23.5458,-24.0538m-26.3652 24.0538c0,-14.859 11.5824,-26.8986 26.3652,-26.8986m-29.1846 26.8986c0,-16.4084 12.8524,-29.718 29.1846,-29.718m-32.004 29.718c0,-17.9832 14.1224,-32.5628 32.004,-32.5628m-34.8234 32.5628c0,-19.5326 15.3924,-35.3822 34.8234,-35.3822m-0.254 22.6314c6.985,0 12.6746,5.334 12.6746,12.3698m-12.6746 -37.846c20.9804,0 37.9984,17.1196 37.9984,38.227m-37.9984 -15.5702c8.5344,0 15.494,6.5786 15.494,15.1892m-15.494 -18.034c10.1092,0 18.288,7.874 18.288,18.034m-18.288 -20.8534c11.6586,0 21.1074,9.1186 21.1074,20.8534m-21.1074 -23.6728c13.208,0 23.9268,10.3632 23.9268,23.6728m-23.9268 -26.5176c14.7574,0 26.7462,11.6586 26.7462,26.5176m-26.7462 -29.337c16.3322,0 29.5402,12.9032 29.5402,29.337m-29.5402 -32.1818c17.8816,0 32.3596,14.1986 32.3596,32.1818m-32.3596 -35.0012c19.431,0 35.179,15.4432 35.179,35.0012m19.9644 -3.6576l0 55.7022m25.4762 -55.7022l0 55.7022m-5.6642 -55.7022l0 55.7022m-2.8194 -55.7022l0 55.7022m-2.8448 -55.7022l0 55.7022m-2.8194 -55.7022l0 55.7022m-2.8194 -55.7022l0 55.7022m-2.8448 -55.7022l0 55.7022m-2.8194 -55.7022l0 55.7022m19.812 -55.7022l0 56.3118m-35.2552 10.8712c7.0358,0 12.6238,-4.7752 12.6238,-11.7856m-12.6238 37.2872c21.1074,0 38.0746,-16.2306 38.0746,-37.2872m-38.0746 14.6304c8.6106,0 15.4432,-6.0452 15.4432,-14.6304m-15.4432 17.4498c10.16,0 18.288,-7.3152 18.288,-17.4498m-18.288 20.2946c11.7348,0 21.1074,-8.5852 21.1074,-20.2946m-21.1074 23.114c13.2842,0 23.9268,-9.8552 23.9268,-23.114m-23.9268 25.9588c14.859,0 26.7716,-11.1506 26.7716,-25.9588m-26.7716 28.7782c16.4338,0 29.591,-12.3952 29.591,-28.7782m-29.591 31.623c17.9832,0 32.4104,-13.6906 32.4104,-31.623m-32.4104 34.4424c19.5326,0 35.2552,-14.478 35.2552,-33.9852"/>
  <path class="fil0 str1" d="M141.17 50.743c0,11.7094 -8.6868,21.0566 -20.2184,21.0566"/>
  <path class="fil0 str0" d="M120.697 125.571c-13.208,0 -23.9268,-10.3886 -23.9268,-23.6982m23.9268 26.543c-14.7574,0 -26.7462,-11.6586 -26.7462,-26.543m26.7462 29.3878c-16.3322,0 -29.5402,-12.954 -29.5402,-29.3878m29.5402 32.2072c-17.8816,0 -32.3596,-14.1986 -32.3596,-32.2072m32.3596 35.052c-19.431,0 -35.179,-15.4686 -35.179,-35.052m89.7636 -63.2714l0 -25.9588m25.3238 25.9588l0 -25.9588m-2.8194 25.9588l0 -25.9588m-2.794 25.9588l0 -25.9588m-2.8194 25.9588l0 -25.9588m-2.8194 25.9588l0 -25.9588m-2.8194 25.9588l0 -25.9588m-2.8194 25.9588l0 -25.9588m-2.8194 25.9588l0 -25.9588m-2.794 25.9588l0 -25.9588m-95.4024 37.7444l0 51.6636m25.3238 -51.6636l0 51.6636m-2.8194 -51.6636l0 51.6636m-2.794 -51.6636l-0.0254 51.6636m-2.794 -51.6636l0 51.6636m-2.8194 -51.6636l0 51.6636m-2.8194 -51.6636l0 51.6636m-2.8194 -51.6636l0 51.6636m-2.8194 -51.6636l0 51.6636m-2.794 -51.6636l0 51.6636m47.2186 -51.6636c0,7.0612 -5.2832,12.954 -12.2936,12.954m37.6174 -12.954c0,21.0058 -16.9926,38.1762 -37.7952,38.3794m15.2908 -38.3794c0,8.6106 -6.5532,15.7734 -15.113,15.7734m17.907 -15.7734c0,10.1854 -7.9756,18.6182 -18.0848,18.6182"/>
  <path class="fil0 str1" d="M120.646 122.727c-11.6078,0 -21.0312,-9.0424 -21.0312,-20.6756"/>
  <path class="fil0 str0" d="M82.6734 88.7668l37.7952 0m-37.7952 -25.4254l37.9984 0m-37.9984 5.6642l37.7698 0m-37.7698 2.8194l38.4556 -0.0254m-38.4556 2.8448l38.4556 0m-38.4556 2.8194l37.7698 0m-37.7698 2.8194l37.7698 0.0254m-37.7698 2.8194l37.7698 0m-37.7698 2.8194l37.7698 0m-37.7698 -19.7866l37.7698 0m0.254 73.6092l41.9608 0m-41.9608 -25.4508l41.9608 0m-41.9608 5.6642l41.9608 0m-41.9608 2.8194l41.9608 0m-41.9608 2.8194l41.9608 0m-41.9608 2.8194l41.9608 0m-41.9608 2.8448l41.9608 0m-41.9608 2.8194l41.9608 0m-41.9608 2.8194l41.9608 0m-41.9608 -19.7866l41.9608 0m-41.9608 -2.8194c-6.985,0 -12.6746,-5.3086 -12.6746,-12.319m12.6746 37.7698c-20.8534,0 -37.8206,-16.891 -38.0238,-37.7698m38.0238 15.1638c-8.5344,0 -15.494,-6.5786 -15.494,-15.1638m15.494 17.9832c-10.1092,0 -18.288,-7.8486 -18.288,-17.9832m-53.3654 -38.608l33.6296 0m-33.6296 25.3492l33.6296 0m-33.6296 -5.6134l33.6296 0m-33.6296 -2.8448l33.6296 0m-33.6296 -2.8194l33.6296 0m-33.6296 -2.8194l33.6296 0m-33.6296 -2.8194l33.6296 0m-33.6296 -2.794l33.6296 0m-33.6296 -2.8194l33.6296 0m-33.6296 19.7104l33.6296 0m-39.0398 28.194l31.1912 0m-31.1912 25.3746l31.1912 0m-31.1912 -5.6388l31.1912 0m-31.1912 -2.8194l31.1912 0m-31.1912 -2.8194l31.1912 0m-31.1912 -2.8194l31.1912 0m-31.1912 -2.8194l31.1912 0m-31.1912 -2.8194l31.1912 0m-31.1912 -2.8194l31.1912 0m-31.1912 19.7104l31.1912 0m-31.1912 -124.003l31.1912 0m-31.1912 25.3746l31.1912 0m-31.1912 -5.6388l31.1912 0m-31.1912 -2.8194l31.1912 0m-31.1912 -2.8194l31.1912 0m-31.1912 -2.8194l31.1912 0m-31.1912 -2.8194l31.1912 0m-31.1912 -2.8194l31.1912 0m-31.1912 -2.8194l31.1912 0m-31.1912 19.7358l31.1912 0m-31.1912 53.5432c-7.0104,0 -12.2936,5.6896 -12.2936,12.7 0,6.985 5.2832,12.6746 12.2936,12.6746m0.381 -50.7238c-21.0058,0 -38.0746,17.018 -38.0746,38.0492 0,21.0058 17.0688,38.0492 38.0746,38.0492m-0.381 -53.5432c-8.5598,0 -15.113,6.9342 -15.113,15.494 0,8.5598 6.5532,15.494 15.113,15.494m0 -33.8074c-10.1346,0 -17.9578,8.1788 -17.9578,18.3134 0,10.1092 7.8232,18.3134 17.9578,18.3134m0 -39.4716c-11.684,0 -20.7518,9.4742 -20.7518,21.1582 0,11.6586 9.0678,21.1328 20.7518,21.1328m0 -45.1104c-13.2334,0 -23.5712,10.7442 -23.5712,23.9776 0,13.208 10.3378,23.9522 23.5712,23.9522m0 -50.7238c-14.8082,0 -26.416,11.9634 -26.416,26.7716 0,14.7828 11.6078,26.7716 26.416,26.7716m0 -56.3626c-16.3576,0 -29.21,13.2334 -29.21,29.591 0,16.3322 12.8524,29.591 29.21,29.591m0 -62.0268c-17.907,0 -32.0294,14.5288 -32.0294,32.4358 0,17.8816 14.1224,32.4104 32.0294,32.4104m0 -67.6402c-19.4818,0 -34.8742,15.7734 -34.8742,35.2298 0,19.4564 15.3924,35.2044 34.8742,35.2044m0 -98.6282c-7.0104,0 -12.2936,5.6642 -12.2936,12.6746 0,7.0104 5.2832,12.7 12.2936,12.7m0.381 -50.7492c-21.0058,0 -38.0746,17.0434 -38.0746,38.0492 0,21.0058 17.0688,38.0492 38.0746,38.0492m-0.381 -53.5432c-8.5598,0 -15.113,6.9342 -15.113,15.494 0,8.5598 6.5532,15.5194 15.113,15.5194m0 -33.8328c-10.1346,0 -17.9578,8.2042 -17.9578,18.3134 0,10.1346 7.8232,18.3388 17.9578,18.3388m0 -39.4716c-11.684,0 -20.7518,9.4742 -20.7518,21.1328 0,11.684 9.0678,21.1328 20.7518,21.1328m0 -45.085c-13.2334,0 -23.5712,10.7188 -23.5712,23.9522 0,13.2334 10.3378,23.9522 23.5712,23.9522m0 -50.7238c-14.8082,0 -26.416,11.9888 -26.416,26.7716 0,14.7828 11.6078,26.7716 26.416,26.7716m0 -56.3626c-16.3576,0 -29.21,13.2588 -29.21,29.591 0,16.3576 12.8524,29.591 29.21,29.591m0 -62.0014c-17.907,0 -32.0294,14.5034 -32.0294,32.4104 0,17.907 14.1224,32.4358 32.0294,32.4358m0 -67.6656c-19.4818,0 -34.8742,15.7734 -34.8742,35.2298 0,19.4564 15.3924,35.2298 34.8742,35.2298"/>
 </g>
</svg>
